<svg width="600" height="475" viewBox="0 0 600 475" fill="none" xmlns="http://www.w3.org/2000/svg">
<path d="M300 474.164C465.685 474.164 600 461.595 600 446.091C600 430.587 465.685 418.019 300 418.019C134.315 418.019 0 430.587 0 446.091C0 461.595 134.315 474.164 300 474.164Z" fill="#E5E5E5"/>
<path fill-rule="evenodd" clip-rule="evenodd" d="M401.343 371.56C401.343 361.739 409.29 353.792 419.111 353.792C428.932 353.792 436.878 361.739 436.878 371.56V395.876C436.878 405.697 428.932 413.644 419.111 413.644C409.29 413.644 401.343 405.697 401.343 395.876V371.56ZM419.111 357.499C411.337 357.499 405.05 363.786 405.05 371.56V395.876C405.05 403.65 411.337 409.937 419.111 409.937C426.884 409.937 433.172 403.65 433.172 395.876V371.56C433.172 363.786 426.884 357.499 419.111 357.499Z" fill="#4D4D61"/>
<path d="M419.111 411.791C427.908 411.791 435.025 404.674 435.025 395.877V371.56C435.025 362.763 427.908 355.646 419.111 355.646C410.313 355.646 403.196 362.763 403.196 371.56V395.877C403.196 404.674 410.313 411.791 419.111 411.791Z" fill="#4D4D61"/>
<path d="M407.644 401.61V377.294C407.644 368.496 414.761 361.379 423.559 361.379C427.414 361.379 430.873 362.763 433.641 364.938C431.17 359.402 425.635 355.547 419.111 355.547C410.313 355.547 403.196 362.664 403.196 371.462V395.778C403.196 400.819 405.47 405.267 409.127 408.134C408.139 406.256 407.644 403.982 407.644 401.61Z" fill="#56566D"/>
<path d="M418.913 362.07C423.771 362.07 427.71 360.655 427.71 358.907C427.71 357.16 423.771 355.744 418.913 355.744C414.055 355.744 410.116 357.16 410.116 358.907C410.116 360.655 414.055 362.07 418.913 362.07Z" fill="#4D4D61"/>
<path d="M419.11 358.908C422.372 358.908 425.041 356.239 425.041 352.977V325.597C425.041 322.829 422.767 320.555 419.999 320.555H418.319C415.551 320.555 413.278 322.829 413.278 325.597V352.977C413.179 356.239 415.848 358.908 419.11 358.908Z" fill="#4D4D61"/>
<path fill-rule="evenodd" clip-rule="evenodd" d="M411.424 325.498C411.424 321.707 414.429 318.703 418.22 318.703H420.098C423.89 318.703 426.894 321.707 426.894 325.498V352.978C426.894 357.263 423.395 360.762 419.11 360.762C414.846 360.762 411.31 357.278 411.424 352.952V325.498ZM418.22 322.409C416.476 322.409 415.131 323.754 415.131 325.498V352.978C415.131 352.996 415.131 353.015 415.13 353.034C415.064 355.218 416.86 357.055 419.11 357.055C421.348 357.055 423.187 355.216 423.187 352.978V325.498C423.187 323.754 421.842 322.409 420.098 322.409H418.22Z" fill="#4D4D61"/>
<path d="M294.563 116.733H277.66C274.497 116.733 271.927 114.163 271.927 111C271.927 107.837 274.497 105.267 277.66 105.267H284.777C290.411 105.267 294.958 100.72 294.958 95.086C294.958 89.4517 290.411 84.9048 284.777 84.9048H262.438C261.548 84.9048 260.757 84.114 260.757 83.2244C260.757 82.3348 261.548 81.544 262.438 81.544H264.909C265.898 81.544 266.688 80.7532 266.688 79.7648C266.688 78.7763 265.898 77.9855 264.909 77.9855H247.413C246.227 77.9855 245.239 78.974 245.239 80.1601C245.239 81.3463 246.227 82.3348 247.413 82.3348H254.234C256.211 82.3348 257.891 84.0152 257.891 85.9921C257.891 87.969 256.211 89.6494 254.234 89.6494H250.972C246.326 89.6494 242.471 93.4056 242.471 98.1503C242.471 102.895 246.227 106.651 250.972 106.651H257.891C259.472 106.651 260.757 107.936 260.757 109.518C260.757 111.099 259.472 112.384 257.891 112.384H255.222C252.158 112.384 249.687 114.855 249.687 117.92C249.687 120.984 252.158 123.455 255.222 123.455H291.301C293.278 123.455 294.958 125.135 294.86 127.112L294.761 129.88H301.977V124.147C301.779 119.995 298.517 116.733 294.563 116.733ZM271.136 95.2837C271.136 94.3941 271.828 93.6033 272.817 93.6033H282.603C283.492 93.6033 284.283 94.2952 284.283 95.2837C284.283 96.1733 283.591 96.9641 282.603 96.9641H272.817C271.828 96.8652 271.136 96.1733 271.136 95.2837Z" fill="#E5E5E5"/>
<path d="M242.174 77.5902H239.209C238.122 77.5902 237.232 76.7006 237.232 75.6133C237.232 74.526 238.122 73.6364 239.209 73.6364H242.174C243.262 73.6364 244.151 74.526 244.151 75.6133C244.151 76.7006 243.262 77.5902 242.174 77.5902Z" fill="#E5E5E5"/>
<path d="M480.099 300.095L475.947 293.274C475.057 291.791 475.552 289.814 477.034 288.826C478.517 287.936 480.494 288.431 481.482 289.913L485.634 296.734C486.524 298.216 486.029 300.193 484.547 301.182C482.965 302.17 480.988 301.676 480.099 300.095Z" fill="#4D4D61"/>
<path d="M488.007 297.525L481.286 293.275C479.803 292.286 479.309 290.309 480.297 288.827C481.286 287.344 483.262 286.85 484.745 287.838L491.467 292.089C492.949 293.077 493.444 295.054 492.455 296.537C491.566 298.019 489.589 298.415 488.007 297.525Z" fill="#4D4D61"/>
<path d="M493.443 292.186L485.535 291.099C483.756 290.901 482.569 289.221 482.767 287.441C482.965 285.662 484.645 284.476 486.424 284.674L494.332 285.761C496.111 285.959 497.298 287.639 497.1 289.418C496.803 291.198 495.222 292.384 493.443 292.186Z" fill="#4D4D61"/>
<path d="M496.211 285.663L488.303 286.75C486.524 287.047 484.943 285.761 484.646 283.982C484.349 282.203 485.634 280.621 487.414 280.325L495.321 279.238C497.101 278.941 498.682 280.226 498.979 282.005C499.177 283.785 497.99 285.366 496.211 285.663Z" fill="#4D4D61"/>
<path d="M497.397 278.94L489.786 281.312C488.105 281.807 486.326 280.917 485.733 279.138C485.239 277.457 486.128 275.678 487.907 275.085L495.519 272.713C497.199 272.218 498.978 273.108 499.571 274.887C499.967 276.667 499.077 278.446 497.397 278.94Z" fill="#4D4D61"/>
<path d="M497.595 272.021L490.181 274.888C488.501 275.481 486.623 274.69 486.029 273.01C485.436 271.329 486.227 269.451 487.907 268.858L495.321 265.992C497.001 265.399 498.879 266.189 499.473 267.87C500.066 269.55 499.275 271.329 497.595 272.021Z" fill="#4D4D61"/>
<path d="M497.398 265.102L490.281 268.759C488.7 269.55 486.723 268.957 485.932 267.376C485.141 265.794 485.734 263.817 487.316 263.026L494.433 259.369C496.014 258.578 497.991 259.171 498.782 260.753C499.573 262.334 498.98 264.311 497.398 265.102Z" fill="#4D4D61"/>
<path d="M496.804 260.456L489.688 264.113C488.106 264.904 486.129 264.311 485.338 262.729C484.547 261.148 485.141 259.171 486.722 258.38L493.839 254.723C495.421 253.932 497.398 254.525 498.188 256.107C498.979 257.688 498.386 259.665 496.804 260.456Z" fill="#4D4D61"/>
<path fill-rule="evenodd" clip-rule="evenodd" d="M292.117 148.957C292.117 140.718 298.779 134.056 307.018 134.056C315.257 134.056 321.919 140.718 321.919 148.957C321.919 157.197 315.257 163.858 307.018 163.858C298.779 163.858 292.117 157.197 292.117 148.957ZM307.018 137.763C300.826 137.763 295.824 142.765 295.824 148.957C295.824 155.149 300.826 160.152 307.018 160.152C313.21 160.152 318.212 155.149 318.212 148.957C318.212 142.765 313.21 137.763 307.018 137.763ZM307.018 143.002C303.692 143.002 300.964 145.73 300.964 149.056C300.964 152.382 303.692 155.11 307.018 155.11C310.344 155.11 313.072 152.382 313.072 149.056C313.072 145.73 310.344 143.002 307.018 143.002ZM297.257 149.056C297.257 143.683 301.645 139.295 307.018 139.295C312.391 139.295 316.779 143.683 316.779 149.056C316.779 154.429 312.391 158.817 307.018 158.817C301.645 158.817 297.257 154.429 297.257 149.056Z" fill="#4D4D61"/>
<path d="M317.793 142.136H316.409H306.524C303.559 142.136 301.582 145.299 303.065 147.968C305.14 151.922 309.391 154.689 314.234 154.689H315.519V169.516H329.061V153.306C328.962 147.177 323.921 142.136 317.793 142.136Z" fill="#F7E3CB"/>
<path d="M317.792 142.136H316.408H312.158C318.385 142.136 323.427 147.177 323.427 153.404V169.615H329.061V153.404C328.962 147.177 323.921 142.136 317.792 142.136Z" fill="#EDD6BC"/>
<path fill-rule="evenodd" clip-rule="evenodd" d="M300.407 146.55C299.44 143.488 301.702 140.283 305.041 140.283H317.793C324.945 140.283 330.816 146.154 330.816 153.306V169.517C330.816 170.541 329.986 171.371 328.962 171.371H315.42C314.397 171.371 313.567 170.541 313.567 169.517V156.532C307.444 156.291 302.28 152.168 300.417 146.578L300.407 146.55ZM303.939 145.422C305.384 149.734 309.441 152.837 314.135 152.837H315.42C316.444 152.837 317.274 153.667 317.274 154.69V167.664H327.109V153.306C327.109 148.201 322.897 143.99 317.793 143.99H305.041C304.234 143.99 303.728 144.731 303.939 145.422Z" fill="#4D4D61"/>
<path d="M279.737 167.639H298.715C302.867 167.639 306.327 164.279 306.327 160.028V130.473H272.126V160.028C272.126 164.18 275.486 167.639 279.737 167.639Z" fill="#FFD680"/>
<path fill-rule="evenodd" clip-rule="evenodd" d="M287.004 140.631C287.429 140.424 287.934 140.478 288.307 140.769L290.58 142.548C291.117 142.969 291.212 143.745 290.792 144.283C290.371 144.82 289.594 144.915 289.057 144.494L288.781 144.278V145.992C288.781 152.697 283.391 158.2 276.573 158.2H272.125C271.443 158.2 270.889 157.647 270.889 156.964C270.889 156.282 271.443 155.729 272.125 155.729H276.573C282.012 155.729 286.309 151.347 286.309 145.992V141.742C286.309 141.269 286.579 140.838 287.004 140.631Z" fill="#4D4D61"/>
<path d="M296.343 130.373V159.929C296.343 164.08 292.982 167.54 288.732 167.54H298.616C302.768 167.54 306.227 164.179 306.227 159.929V130.373H296.343Z" fill="#EABD6C"/>
<path fill-rule="evenodd" clip-rule="evenodd" d="M270.272 130.472C270.272 129.449 271.102 128.619 272.125 128.619H306.326C307.35 128.619 308.179 129.449 308.179 130.472V160.027C308.179 165.317 303.874 169.492 298.715 169.492H279.736C274.447 169.492 270.272 165.187 270.272 160.027V130.472ZM273.978 132.326V160.027C273.978 163.171 276.525 165.785 279.736 165.785H298.715C301.859 165.785 304.473 163.239 304.473 160.027V132.326H273.978Z" fill="#4D4D61"/>
<path d="M363.953 170.605L368.895 180.786L376.21 175.745L363.953 170.605Z" fill="#CA4361"/>
<path fill-rule="evenodd" clip-rule="evenodd" d="M363.056 169.756C363.409 169.382 363.957 169.267 364.431 169.466L376.688 174.606C377.105 174.78 377.393 175.168 377.439 175.618C377.486 176.067 377.283 176.506 376.911 176.762L369.597 181.804C369.3 182.008 368.929 182.073 368.581 181.981C368.232 181.889 367.941 181.65 367.784 181.326L362.842 171.145C362.617 170.682 362.703 170.129 363.056 169.756ZM366.494 173.01L369.379 178.952L373.648 176.01L366.494 173.01Z" fill="#4D4D61"/>
<path d="M380.751 403.013L394.27 394.616L337.894 303.844L324.375 312.241L380.751 403.013Z" fill="#F7E3CB"/>
<path fill-rule="evenodd" clip-rule="evenodd" d="M338.316 302.038C338.795 302.15 339.209 302.447 339.468 302.865L395.845 393.637C396.385 394.507 396.118 395.649 395.248 396.189L381.729 404.586C381.311 404.846 380.808 404.929 380.329 404.817C379.851 404.705 379.436 404.407 379.177 403.99L322.8 313.218C322.26 312.348 322.527 311.206 323.397 310.666L336.916 302.268C337.334 302.009 337.837 301.926 338.316 302.038ZM326.927 312.837L381.348 400.46L391.718 394.018L337.297 306.395L326.927 312.837Z" fill="#4D4D61"/>
<path d="M177.034 376.305L281.713 292.087L291.796 304.246L187.117 388.562L177.034 376.305Z" fill="#F7E3CB"/>
<path d="M188.501 367.112L198.089 379.764L207.578 372.35L197.99 359.402L188.501 367.112Z" fill="#EDD6BC"/>
<path fill-rule="evenodd" clip-rule="evenodd" d="M280.551 290.643C281.34 290.008 282.493 290.125 283.14 290.904L293.222 303.062C293.539 303.444 293.689 303.937 293.64 304.431C293.59 304.925 293.344 305.378 292.958 305.689L188.279 390.005C187.488 390.643 186.331 390.524 185.685 389.739L175.603 377.482C175.288 377.1 175.14 376.608 175.191 376.115C175.241 375.623 175.487 375.171 175.873 374.861L280.551 290.643ZM179.656 376.574L187.383 385.968L289.169 303.981L281.452 294.676L179.656 376.574Z" fill="#4D4D61"/>
<path fill-rule="evenodd" clip-rule="evenodd" d="M381.248 159.497C385.673 155.789 392.364 156.263 396.196 160.694L396.197 160.695L403.709 169.393L403.712 169.396C422.558 191.316 420.216 224.514 398.276 243.279C376.345 262.233 343.251 259.77 324.298 237.847L324.295 237.843C316.099 228.315 311.59 216.223 311.59 203.62V167.738C311.59 166.715 312.42 165.885 313.443 165.885H331.038C332.062 165.885 332.891 166.715 332.891 167.738V203.521C332.891 210.977 335.593 218.163 340.453 223.865C351.644 236.918 371.325 238.321 384.291 227.126L384.296 227.122C397.351 215.932 398.754 196.25 387.559 183.282C387.559 183.282 387.56 183.283 387.559 183.282L380.048 174.585C380.048 174.585 380.048 174.585 380.048 174.585M383.63 162.337C380.673 164.829 380.359 169.278 382.852 172.16L390.365 180.86C402.893 195.371 401.331 217.401 386.711 229.934C372.199 242.46 350.17 240.897 337.637 226.276L337.634 226.272C332.215 219.915 329.185 211.88 329.185 203.521V169.592H315.297V203.62C315.297 215.331 319.485 226.566 327.103 235.424C344.723 255.804 375.48 258.086 395.856 240.471L395.863 240.465C416.225 223.052 418.429 192.202 400.903 171.816C400.903 171.815 400.902 171.814 400.901 171.813L393.392 163.119" fill="#4D4D61"/>
<path d="M373.938 175.744C373.938 175.744 385.305 187.112 392.62 197.392C399.835 207.573 405.173 221.115 405.173 223.784C409.325 226.453 410.412 227.936 411.104 227.244C411.796 226.552 411.796 222.598 411.796 219.138C411.796 215.58 379.671 171.889 373.938 175.744Z" fill="#CA4361"/>
<path fill-rule="evenodd" clip-rule="evenodd" d="M412.877 218.307C412.951 218.534 413.03 218.831 413.03 219.138V219.163C413.03 220.876 413.03 222.757 412.942 224.3C412.898 225.072 412.829 225.8 412.718 226.398C412.662 226.697 412.59 226.994 412.492 227.263C412.401 227.511 412.25 227.844 411.977 228.117C411.747 228.347 411.441 228.54 411.058 228.615C410.691 228.688 410.358 228.631 410.096 228.548C409.624 228.399 409.148 228.083 408.724 227.784C408.455 227.595 408.164 227.381 407.838 227.141C407.017 226.536 405.972 225.767 404.504 224.823C404.15 224.596 403.937 224.204 403.937 223.784C403.937 223.608 403.885 223.225 403.729 222.599C403.58 221.997 403.355 221.245 403.056 220.364C402.457 218.603 401.58 216.379 400.474 213.91C398.26 208.969 395.16 203.114 391.611 198.107C387.996 193.027 383.365 187.658 379.621 183.545C377.752 181.491 376.11 179.758 374.937 178.538C374.35 177.928 373.88 177.447 373.558 177.119C373.397 176.955 373.272 176.829 373.189 176.745L373.094 176.649L373.063 176.618C372.802 176.357 372.671 175.993 372.707 175.625C372.742 175.258 372.941 174.925 373.247 174.719C373.969 174.234 374.8 174.197 375.547 174.345C376.286 174.492 377.06 174.838 377.832 175.289C379.382 176.193 381.188 177.674 383.119 179.5C386.998 183.167 391.592 188.428 395.979 193.887C400.371 199.353 404.585 205.053 407.706 209.617C409.265 211.897 410.56 213.908 411.471 215.472C411.925 216.252 412.295 216.94 412.555 217.506C412.685 217.788 412.796 218.058 412.877 218.307ZM378.691 178.9C379.527 179.565 380.442 180.369 381.422 181.296C385.179 184.848 389.692 190.009 394.053 195.435C398.408 200.855 402.584 206.504 405.666 211.012C407.208 213.268 408.467 215.224 409.336 216.716C409.771 217.463 410.097 218.075 410.31 218.538C410.417 218.771 410.487 218.947 410.528 219.073C410.547 219.13 410.555 219.165 410.559 219.182C410.559 220.909 410.558 222.706 410.475 224.158C410.435 224.853 410.378 225.433 410.302 225.872C410.253 225.838 410.201 225.803 410.146 225.764C409.93 225.612 409.673 225.422 409.371 225.2C408.635 224.659 407.639 223.925 406.348 223.075C406.298 222.742 406.221 222.379 406.128 222.004C405.957 221.314 405.709 220.491 405.395 219.568C404.767 217.721 403.859 215.423 402.729 212.9C400.47 207.858 397.294 201.852 393.627 196.677L393.625 196.676C389.926 191.476 385.217 186.022 381.448 181.881C380.454 180.789 379.523 179.785 378.691 178.9Z" fill="#4D4D61"/>
<path d="M408.534 405.267L331.335 428.694C329.951 429.089 328.468 428.298 327.974 426.915L327.875 426.717C327.48 425.333 328.27 423.85 329.654 423.356L406.853 399.929C408.237 399.534 409.72 400.325 410.214 401.709L410.313 401.906C410.709 403.389 409.918 404.872 408.534 405.267Z" fill="#595D5C"/>
<path fill-rule="evenodd" clip-rule="evenodd" d="M407.373 401.709L330.247 425.113C329.81 425.285 329.59 425.718 329.634 426.09C329.666 426.155 329.695 426.222 329.72 426.291C329.899 426.793 330.415 427.023 330.816 426.914L407.996 403.493L408.025 403.485C408.319 403.401 408.628 403.05 408.553 402.528C408.521 402.464 408.493 402.399 408.469 402.332C408.29 401.83 407.774 401.6 407.373 401.709ZM411.916 400.967C411.067 398.777 408.669 397.483 406.345 398.147L406.316 398.156L329.116 421.582C329.088 421.591 329.059 421.6 329.031 421.611C326.769 422.418 325.417 424.86 326.093 427.226C326.125 427.336 326.166 427.443 326.218 427.545L326.273 427.656C327.122 429.846 329.52 431.14 331.844 430.476L331.873 430.467L409.06 407.044C411.497 406.338 412.733 403.787 412.104 401.429C412.072 401.307 412.027 401.19 411.971 401.078L411.916 400.967Z" fill="#4D4D61"/>
<path d="M396.178 385.398L395.881 385.497C394.201 388.462 390.642 391.131 386.095 392.515C382.735 393.503 379.374 393.701 376.606 393.009C374.135 392.416 371.565 392.317 369.094 393.009L338.649 401.51C334.992 402.498 332.125 405.266 330.642 409.121L327.38 417.622C326.293 420.488 328.764 423.75 331.433 422.96L406.161 400.225L402.998 389.945C402.01 386.683 398.945 384.706 396.178 385.398Z" fill="#9B8462"/>
<path d="M330.642 409.221L330.148 410.604C332.718 412.581 336.177 413.372 339.637 412.384L386.293 398.15C390.741 396.766 393.508 392.812 393.607 388.364C391.729 390.143 389.159 391.626 386.194 392.515C382.833 393.504 379.472 393.702 376.704 393.01C374.233 392.417 371.663 392.318 369.192 393.01L338.747 401.511C334.991 402.499 332.125 405.267 330.642 409.221Z" fill="#E1C885"/>
<path fill-rule="evenodd" clip-rule="evenodd" d="M404.771 389.405C404.772 389.406 404.772 389.407 404.773 389.408L407.933 399.681C408.078 400.152 408.03 400.661 407.799 401.096C407.567 401.531 407.173 401.856 406.701 401.999L331.96 424.738C329.699 425.408 327.673 424.301 326.522 422.784C325.37 421.264 324.851 419.068 325.648 416.966L325.651 416.959L328.913 408.457C330.578 404.128 333.86 400.888 338.158 399.724C338.161 399.723 338.163 399.723 338.166 399.722L368.595 391.225C368.594 391.226 368.595 391.225 368.595 391.225C368.595 391.225 368.596 391.225 368.596 391.225C371.437 390.43 374.336 390.559 377.039 391.208L377.056 391.212C379.424 391.804 382.437 391.659 385.565 390.74C389.781 389.455 392.883 387.031 394.269 384.584C394.495 384.185 394.861 383.884 395.296 383.74L395.592 383.641C395.637 383.626 395.683 383.612 395.729 383.601C399.67 382.616 403.564 385.427 404.771 389.405ZM397.054 387.128C394.96 390.291 391.171 392.909 386.636 394.289L386.619 394.294C383.032 395.349 379.33 395.599 376.166 394.811C373.93 394.275 371.692 394.207 369.594 394.795L339.133 403.3C336.121 404.114 333.673 406.409 332.373 409.786C332.373 409.786 332.373 409.786 332.373 409.786C332.373 409.787 332.373 409.787 332.373 409.788L329.114 418.28C329.114 418.281 329.113 418.282 329.113 418.283C328.825 419.047 328.997 419.913 329.475 420.543C329.954 421.174 330.496 421.304 330.902 421.185C330.904 421.185 330.906 421.184 330.907 421.184L403.844 398.994L401.227 390.491L401.225 390.483C400.521 388.159 398.597 387.006 397.054 387.128Z" fill="#4D4D61"/>
<path fill-rule="evenodd" clip-rule="evenodd" d="M375.921 391.658C376.264 392.23 376.274 392.942 375.947 393.523L370.708 402.815C370.27 403.591 369.343 403.946 368.5 403.66C367.656 403.375 367.135 402.53 367.258 401.648L368.543 392.455C368.668 391.557 369.425 390.882 370.332 390.859L374.286 390.76C374.953 390.744 375.577 391.087 375.921 391.658Z" fill="#4D4D61"/>
<path d="M354.365 150.143C396.474 176.437 425.436 218.842 435.123 266.881H448.764C441.054 217.853 413.278 174.163 371.861 146.288" fill="#F7E3CB"/>
<path fill-rule="evenodd" clip-rule="evenodd" d="M390.248 310.441C390.481 309.654 391.204 309.114 392.025 309.114H447.478C448.299 309.114 449.023 309.654 449.256 310.441C449.489 311.229 449.176 312.075 448.487 312.522L437.517 319.638C437.517 319.638 437.517 319.638 437.517 319.638C426.718 326.662 412.882 326.657 401.994 319.642L401.989 319.639L391.017 312.522C390.328 312.075 390.015 311.229 390.248 310.441ZM398.288 312.821L404.001 316.526C404.002 316.527 404.003 316.527 404.003 316.528C413.675 322.757 425.933 322.751 435.496 316.53L435.498 316.529L441.215 312.821H398.288Z" fill="#4D4D61"/>
<path d="M436.508 318.084L447.48 310.967H392.027L402.999 318.084C413.279 324.707 426.326 324.707 436.508 318.084Z" fill="#4D4D61"/>
<path d="M368.698 147.771C380.066 143.027 388.171 131.758 388.171 118.611V107.936H390.346C397.858 107.936 403.987 101.808 403.987 94.2951C403.987 86.7828 398.748 79.7646 391.137 79.7646L387.479 80.0612L388.072 63.2572C388.072 45.7613 373.937 31.6262 356.441 31.6262C338.945 31.6262 324.81 45.7613 324.81 63.2572V80.5554H315.42C312.553 80.5554 310.181 82.9278 310.181 85.7943C310.181 93.5044 316.408 99.8305 324.217 99.8305H324.909V118.611C324.909 135.317 337.957 149.056 354.366 150.144" fill="#F7E3CB"/>
<path d="M469.424 291.889H362.768C362.373 291.889 362.076 291.889 361.681 291.988C353.476 292.581 347.051 299.797 347.644 308.298C348.139 315.909 354.465 322.136 362.175 322.532C365.239 322.631 368.106 321.939 370.478 320.555C380.56 314.723 391.829 311.164 403.592 311.164H469.424C474.663 311.164 478.913 306.914 478.913 301.675C479.012 296.239 474.663 291.889 469.424 291.889Z" fill="#CA4361"/>
<path d="M364.053 313.537C363.46 305.036 369.885 297.919 378.089 297.227C378.386 297.227 378.781 297.128 379.177 297.128H478.023C476.442 293.965 473.279 291.889 469.523 291.889H362.768C362.373 291.889 362.076 291.889 361.681 291.988C353.476 292.581 347.051 299.797 347.644 308.298C348.139 315.909 354.465 322.136 362.175 322.532C363.954 322.631 365.635 322.433 367.216 321.939C365.437 319.468 364.251 316.601 364.053 313.537Z" fill="#D35375"/>
<path fill-rule="evenodd" clip-rule="evenodd" d="M362.728 290.036C362.741 290.036 362.755 290.036 362.768 290.036H469.423C475.699 290.036 480.874 295.232 480.766 301.692C480.757 307.947 475.68 313.018 469.423 313.018H403.591C392.209 313.018 381.258 316.461 371.408 322.158C368.707 323.733 365.491 324.494 362.115 324.385L362.08 324.383C353.441 323.94 346.353 316.98 345.795 308.423C345.137 298.95 352.254 290.892 361.4 290.151C361.94 290.036 362.377 290.036 362.728 290.036ZM362.768 293.743C362.37 293.743 362.281 293.749 362.13 293.787C362.026 293.813 361.921 293.83 361.814 293.837C354.624 294.357 348.972 300.693 349.493 308.169L349.494 308.178H349.494C349.926 314.836 355.48 320.324 362.252 320.68C364.996 320.766 367.506 320.143 369.544 318.954L369.55 318.951C379.864 312.985 391.45 309.312 403.591 309.312H469.423C473.639 309.312 477.059 305.891 477.059 301.676L477.06 301.642C477.14 297.237 473.62 293.743 469.423 293.743H362.768Z" fill="#4D4D61"/>
<path d="M457.146 420.274L459.84 413.475L430.433 401.827L427.739 408.628L457.146 420.274Z" fill="#4D4D61"/>
<path d="M383.822 420.192L381.153 413.471L407.15 403.191C409.028 402.499 411.104 403.388 411.894 405.266C412.586 407.145 411.697 409.22 409.819 410.011L383.822 420.192Z" fill="#4D4D61"/>
<path d="M403.591 97.0624L399.044 121.379C397.166 131.165 388.171 137.886 378.287 136.7H378.188L389.852 87.5731L403.591 97.0624Z" fill="#A3886C"/>
<path fill-rule="evenodd" clip-rule="evenodd" d="M389.187 85.843C389.759 85.6236 390.401 85.7004 390.905 86.0482L404.645 95.5375C405.247 95.9532 405.548 96.6841 405.413 97.4031L400.865 121.728C398.815 132.41 389.007 139.794 378.178 138.553C377.615 138.55 377.083 138.291 376.734 137.849C376.382 137.405 376.254 136.823 376.384 136.272L388.048 87.145C388.19 86.5496 388.616 86.0624 389.187 85.843ZM380.501 134.982C388.588 135.001 395.651 129.218 397.223 121.034C397.224 121.032 397.224 121.031 397.224 121.029L401.549 97.904L391.029 90.6386L380.501 134.982Z" fill="#4D4D61"/>
<path d="M324.81 101.51V99.2369C324.81 96.0738 322.042 93.7015 318.978 94.2946L315.321 95.5796L324.81 101.51Z" fill="#EDD6BC"/>
<path d="M389.852 80.5545H388.072V63.6517C380.461 75.4145 368.599 90.9334 368.599 90.9334V111.098V112.185C368.599 127.704 356.046 140.258 340.527 140.258H333.311C339.044 146.386 347.249 150.241 356.342 150.241C373.838 150.241 387.973 136.106 387.973 118.61V107.935H390.148C397.957 107.935 404.184 101.411 403.789 93.6023C403.591 86.1888 397.166 80.5545 389.852 80.5545Z" fill="#EDD6BC"/>
<path fill-rule="evenodd" clip-rule="evenodd" d="M322.957 63.2569C322.957 44.7375 337.922 29.7726 356.442 29.7726C374.961 29.7726 389.926 44.7375 389.926 63.2569C389.926 63.2787 389.926 63.3005 389.925 63.3223L389.405 78.0453L390.987 77.9171C391.037 77.913 391.087 77.911 391.137 77.911C400.063 77.911 405.841 86.076 405.841 94.2949C405.841 102.831 398.882 109.789 390.346 109.789H390.025V118.611C390.025 131.281 383.006 142.159 372.769 147.905C371.876 148.405 370.747 148.088 370.246 147.195C369.745 146.303 370.062 145.173 370.955 144.672C380.092 139.544 386.318 129.862 386.318 118.611V107.936C386.318 106.912 387.148 106.082 388.172 106.082H390.346C396.835 106.082 402.134 100.784 402.134 94.2949C402.134 87.5149 397.47 81.6625 391.209 81.618L387.63 81.9082C387.102 81.951 386.582 81.7664 386.199 81.401C385.817 81.0356 385.609 80.5242 385.628 79.9955L386.219 63.2248C386.202 46.7673 372.903 33.4793 356.442 33.4793C339.97 33.4793 326.664 46.7846 326.664 63.2569V80.5551C326.664 81.5787 325.834 82.4085 324.811 82.4085H315.42C313.577 82.4085 312.035 83.9511 312.035 85.794C312.035 92.489 317.441 97.9769 324.218 97.9769H324.91C325.933 97.9769 326.763 98.8067 326.763 99.8303V118.611C326.763 134.335 339.049 147.271 354.489 148.294C355.51 148.362 356.283 149.245 356.215 150.266C356.148 151.287 355.265 152.06 354.244 151.993C336.866 150.841 323.056 136.298 323.056 118.611V101.642C314.767 101.047 308.328 94.1335 308.328 85.794C308.328 81.9039 311.53 78.7018 315.42 78.7018H322.957V63.2569Z" fill="#4D4D61"/>
<path fill-rule="evenodd" clip-rule="evenodd" d="M333.954 73.6356C333.954 71.8605 335.393 70.423 337.166 70.423C338.941 70.423 340.379 71.8609 340.379 73.6356C340.379 75.4088 338.941 76.8481 337.166 76.8481C335.392 76.8481 333.954 75.4092 333.954 73.6356ZM337.166 72.8942C336.757 72.8942 336.425 73.2261 336.425 73.6356C336.425 74.0444 336.757 74.3769 337.166 74.3769C337.576 74.3769 337.907 74.0448 337.907 73.6356C337.907 73.2257 337.576 72.8942 337.166 72.8942Z" fill="#4D4D61"/>
<path fill-rule="evenodd" clip-rule="evenodd" d="M355.849 92.5651C356.531 92.5651 357.084 93.1183 357.084 93.8006V109.814C357.084 120.677 348.228 129.534 337.364 129.534C329.756 129.534 323.674 123.34 323.674 115.843C323.674 115.161 324.227 114.608 324.909 114.608C325.592 114.608 326.145 115.161 326.145 115.843C326.145 121.988 331.134 127.063 337.364 127.063C346.863 127.063 354.613 119.313 354.613 109.814V93.8006C354.613 93.1183 355.166 92.5651 355.849 92.5651Z" fill="#4D4D61"/>
<path fill-rule="evenodd" clip-rule="evenodd" d="M352.976 92.334C353.295 91.7305 354.042 91.4995 354.646 91.818L358.204 93.6961C358.808 94.0146 359.039 94.762 358.72 95.3655C358.402 95.969 357.654 96.2001 357.051 95.8815L353.492 94.0034C352.889 93.6849 352.658 92.9375 352.976 92.334Z" fill="#4D4D61"/>
<path d="M341.219 55.0526L337.661 61.9719L351.598 70.4727L352.488 64.5419L341.219 55.0526Z" fill="#B0977A"/>
<path d="M341.22 55.0526L340.132 57.2273C343.987 58.3146 346.854 61.6753 346.854 65.8269C346.854 66.42 346.755 67.0131 346.656 67.5073L351.599 70.5716L352.488 64.6408L341.22 55.0526Z" fill="#A3886C"/>
<path fill-rule="evenodd" clip-rule="evenodd" d="M340.976 53.8416C341.345 53.7677 341.727 53.8657 342.015 54.108L353.283 63.5973C353.612 63.8739 353.773 64.3011 353.71 64.7257L352.82 70.6565C352.759 71.0659 352.496 71.4174 352.121 71.5926C351.746 71.7679 351.308 71.7436 350.955 71.5281L337.017 63.0272C336.464 62.69 336.266 61.9832 336.562 61.4073L340.12 54.488C340.292 54.1535 340.607 53.9156 340.976 53.8416ZM341.609 56.9967L339.285 61.5158L350.652 68.4491L351.163 65.0424L341.609 56.9967Z" fill="#4D4D61"/>
<path d="M409.127 45.8602C412.488 47.9359 413.971 48.529 417.233 48.529C411.598 40.6213 410.215 25.1023 401.813 15.3165C398.056 10.8684 393.806 6.02488 385.701 3.55371C371.763 -0.597859 358.617 4.04793 356.936 4.93756C346.755 10.3741 336.574 22.8288 339.539 33.5043C339.836 34.6905 338.847 35.4812 339.539 36.3709C350.709 27.87 368.304 30.4401 376.607 41.9063C383.229 51.0002 381.45 65.8272 375.025 74.328C373.147 76.2061 372.356 82.5323 369.589 88.8585L377.002 84.3116C384.613 79.6658 396.08 81.0496 402.406 87.3758C403.493 89.2539 404.185 91.2308 404.482 93.2078C405.272 92.7135 406.261 92.1205 407.447 91.132C414.762 85.0035 416.047 75.7119 416.343 73.3396C418.518 59.3033 410.709 47.6394 409.127 45.8602Z" fill="#B0977A"/>
<path d="M417.331 48.6272C411.697 40.7195 410.313 25.2005 401.911 15.4147C398.649 11.5597 394.992 7.30928 388.666 4.73926C395.585 12.7459 399.836 23.2236 399.836 34.6898C399.836 52.68 389.457 68.1989 374.333 75.7113C372.949 78.3801 372.06 83.7179 369.687 89.0556L377.101 84.5086C384.712 79.8628 396.178 81.2467 402.504 87.5729C403.592 89.451 404.284 91.4279 404.58 93.4048C405.371 92.9106 406.359 92.3176 407.546 91.3291C414.86 85.2006 416.145 75.909 416.442 73.5367C418.419 59.4016 410.511 47.6388 409.028 45.9584C412.587 48.0341 414.069 48.6272 417.331 48.6272Z" fill="#A3886C"/>
<path fill-rule="evenodd" clip-rule="evenodd" d="M366.458 0.520422C371.878 -0.259276 378.933 -0.396328 386.23 1.77718L386.241 1.78058L386.241 1.78062C394.891 4.41772 399.436 9.62891 403.224 14.1148C407.676 19.3031 410.214 25.9371 412.313 32.0226C412.604 32.8678 412.886 33.6995 413.163 34.5167C413.901 36.6922 414.603 38.7641 415.356 40.71C416.39 43.3787 417.467 45.6632 418.742 47.4533C419.145 48.0183 419.198 48.761 418.88 49.3778C418.563 49.9945 417.927 50.3821 417.233 50.3821C416.027 50.3821 414.986 50.3064 413.98 50.0982C414.621 51.3519 415.273 52.7796 415.875 54.3529C417.829 59.4569 419.322 66.2302 418.179 73.6938C417.872 76.1444 416.516 86.0506 408.637 92.6512L408.634 92.6544C407.443 93.6469 406.423 94.2814 405.663 94.754C405.594 94.7966 405.528 94.8379 405.464 94.878C404.934 95.209 404.274 95.251 403.706 94.9897C403.139 94.7284 402.742 94.1989 402.649 93.5813C402.389 91.8468 401.779 90.0936 400.807 88.4113C396.888 81.8027 388.264 79.7075 381.727 83.7165L381.714 83.7246L370.544 90.4463C369.853 90.8623 368.972 90.7832 368.366 90.2507C367.759 89.7182 367.567 88.8546 367.891 88.1154C369.09 85.3739 369.904 82.6305 370.633 80.1756C370.711 79.9118 370.788 79.6514 370.865 79.3947C371.252 78.097 371.635 76.8574 372.051 75.8139C372.434 74.8541 372.92 73.8615 373.612 73.1232C376.544 69.2019 378.465 63.764 378.86 58.2078C379.259 52.6082 378.095 47.0981 375.109 42.9971L375.106 42.993C367.412 32.3685 351.002 29.9759 340.662 37.8454C339.853 38.4607 338.7 38.3104 338.076 37.5084C337.663 36.9776 337.463 36.39 337.437 35.793C337.415 35.267 337.536 34.8082 337.602 34.5649C337.73 34.0897 337.747 33.9997 337.746 33.9711C336.075 27.9136 338.171 21.5751 341.77 16.222C345.391 10.8353 350.713 6.15928 356.063 3.30239L356.069 3.29928L356.069 3.29929C357.157 2.72361 361.086 1.29325 366.458 0.520422ZM357.806 6.57399C352.976 9.15386 348.118 13.4226 344.846 18.2901C341.561 23.1763 340.049 28.3827 341.319 32.9866C353.265 26.247 369.883 29.4638 378.106 40.8166C381.741 45.8092 383 52.2589 382.558 58.4708C382.116 64.6855 379.96 70.8721 376.504 75.4453C376.452 75.5134 376.396 75.5779 376.336 75.6383C376.144 75.8297 375.856 76.2822 375.494 77.1877C375.148 78.0564 374.808 79.1458 374.417 80.4552C374.341 80.7089 374.264 80.9696 374.184 81.2366C373.882 82.2571 373.552 83.37 373.175 84.5368L379.789 80.5567C379.792 80.5554 379.794 80.554 379.796 80.5526C388.084 75.4747 399.022 78.122 404.001 86.5301L404.01 86.5457C404.709 87.754 405.264 89.0052 405.671 90.2781C405.86 90.1331 406.056 89.9774 406.258 89.8087C412.98 84.1756 414.212 75.5466 414.504 73.2083C414.506 73.1909 414.509 73.1736 414.512 73.1563C415.536 66.4952 414.213 60.3788 412.413 55.6783C410.602 50.9469 408.362 47.7878 407.742 47.0912C407.131 46.4037 407.117 45.372 407.708 44.6677C408.3 43.9634 409.319 43.7997 410.101 44.283C411.704 45.2728 412.744 45.8372 413.697 46.1773C413.044 44.8692 412.454 43.479 411.9 42.0487C411.115 40.0231 410.375 37.8383 409.628 35.6359C409.357 34.8343 409.084 34.0304 408.809 33.2309C406.707 27.1359 404.353 21.1202 400.407 16.5235L400.397 16.512L400.397 16.512C396.675 12.104 392.72 7.63263 385.166 5.32798C378.527 3.35169 372.043 3.4619 366.986 4.1894C361.887 4.92299 358.406 6.25769 357.806 6.57399Z" fill="#4D4D61"/>
<path fill-rule="evenodd" clip-rule="evenodd" d="M383.014 88.8324C383.41 88.2771 384.182 88.1485 384.737 88.5451L396.5 96.9471C397.055 97.3437 397.184 98.1154 396.787 98.6707C396.391 99.226 395.619 99.3546 395.064 98.958L383.301 90.556C382.746 90.1594 382.617 89.3877 383.014 88.8324Z" fill="#4D4D61"/>
<path fill-rule="evenodd" clip-rule="evenodd" d="M395.019 86.5681C395.574 86.9648 395.702 87.7365 395.306 88.2917L386.904 100.055C386.507 100.61 385.736 100.738 385.18 100.342C384.625 99.9451 384.496 99.1735 384.893 98.6182L393.295 86.8554C393.692 86.3001 394.463 86.1715 395.019 86.5681Z" fill="#4D4D61"/>
<path fill-rule="evenodd" clip-rule="evenodd" d="M332.93 94.5631C333.242 94.7704 333.602 95.0787 333.824 95.5218C334.055 95.9846 333.974 96.5426 333.62 96.9199C333.266 97.2972 332.714 97.4139 332.237 97.2123C331.364 96.8426 330.603 96.9991 330.007 97.2792C329.704 97.4216 329.456 97.5917 329.286 97.7261C329.201 97.7925 329.139 97.8478 329.101 97.8829C329.082 97.9003 329.069 97.9126 329.064 97.9184C329.062 97.9197 329.061 97.9207 329.061 97.9213C329.061 97.9213 329.061 97.9213 329.061 97.9213C328.597 98.4013 327.835 98.4266 327.341 97.9771L326.253 96.9886C326.11 96.8581 325.999 96.6956 325.93 96.5142C325.744 96.0269 325.694 95.4527 325.951 94.9001C326.197 94.3729 326.631 94.063 327.009 93.8858C327.728 93.5477 328.643 93.4963 329.421 93.5437C330.239 93.5935 331.114 93.7663 331.859 94.0379C332.231 94.1737 332.604 94.3462 332.93 94.5631Z" fill="#4D4D61"/>
<path fill-rule="evenodd" clip-rule="evenodd" d="M370.324 145.253C370.896 144.404 372.048 144.179 372.897 144.75C414.741 172.913 442.806 217.056 450.596 266.593C450.68 267.128 450.526 267.674 450.174 268.086C449.821 268.497 449.307 268.734 448.765 268.734H435.124C434.242 268.734 433.482 268.112 433.307 267.247C423.72 219.702 395.056 177.735 353.385 151.715C352.516 151.173 352.252 150.03 352.794 149.161C353.336 148.293 354.48 148.029 355.348 148.571C397.459 174.866 426.554 217.107 436.635 265.028H446.584C438.491 217.38 411.213 175.006 370.827 147.826C369.978 147.254 369.753 146.102 370.324 145.253Z" fill="#4D4D61"/>
<path d="M304.608 288.672L365.168 386.161L385.405 373.59L324.845 276.1L304.608 288.672Z" fill="#475C80"/>
<path opacity="0.57" d="M316.607 308.693L360.198 378.183C362.966 376.404 371.368 380.259 369.588 377.491L329.753 317.886C327.974 315.119 320.363 307.903 317.496 309.682L316.607 308.693Z" fill="#6987AF"/>
<path d="M314.728 304.938C314.728 304.938 333.41 299.106 339.836 300.292C333.312 287.738 330.939 285.267 330.939 285.267L305.931 293.373L314.728 304.938Z" fill="#4D4D61"/>
<path fill-rule="evenodd" clip-rule="evenodd" d="M325.267 274.296C325.745 274.407 326.16 274.705 326.419 275.122L386.979 372.612C387.519 373.482 387.252 374.624 386.382 375.164L366.145 387.736C365.728 387.995 365.224 388.078 364.746 387.966C364.267 387.854 363.852 387.557 363.593 387.139L303.034 289.65C302.493 288.78 302.76 287.637 303.63 287.097L323.867 274.526C324.284 274.267 324.788 274.184 325.267 274.296ZM307.16 289.268L365.764 383.609L382.852 372.994L324.248 278.653L307.16 289.268Z" fill="#4D4D61"/>
<path d="M268.468 296.437L192.257 359.303L207.381 377.689L276.969 320.259C299.308 301.774 327.48 291.692 356.442 291.692H442.735C449.259 291.692 454.597 286.354 454.597 279.83V267.969H347.842C318.88 267.87 290.808 277.952 268.468 296.437Z" fill="#475C80"/>
<path opacity="0.57" d="M197.002 355.349L203.723 364.739L283.295 293.471L279.242 288.43C275.486 290.901 271.928 293.57 268.468 296.436L197.002 355.349Z" fill="#6987AF"/>
<path opacity="0.57" d="M330.642 273.999L419.703 275.185C424.349 275.185 439.967 272.417 439.967 267.771H348.039C338.55 267.771 308.698 272.417 297.726 278.348C294.86 279.929 317.298 273.999 330.642 273.999Z" fill="#6987AF"/>
<path fill-rule="evenodd" clip-rule="evenodd" d="M267.286 295.008C289.958 276.249 318.449 266.016 347.845 266.115H454.596C455.62 266.115 456.45 266.945 456.45 267.968V279.83C456.45 287.378 450.282 293.545 442.735 293.545H356.441C327.908 293.545 300.155 303.479 278.15 321.686L208.56 379.118C208.181 379.431 207.692 379.581 207.202 379.533C206.712 379.486 206.262 379.246 205.949 378.866L190.825 360.48C190.176 359.691 190.289 358.524 191.077 357.873L267.286 295.008ZM347.835 269.822C319.308 269.724 291.656 279.655 269.649 297.864L269.647 297.866L194.864 359.555L207.632 375.077L275.787 318.83M452.743 269.822H347.842L347.835 269.822" fill="#4D4D61"/>
<path d="M454.695 266.881C447.875 222.4 424.844 181.774 390.544 153.009L368.896 168.034C399.638 193.141 420.89 228.133 428.995 266.881H454.695Z" fill="#E5E5E5"/>
<path d="M428.995 266.881H439.868C431.466 225.958 409.325 188.891 377.397 162.103L368.896 168.034C399.638 193.042 420.89 228.133 428.995 266.881Z" fill="white"/>
<path fill-rule="evenodd" clip-rule="evenodd" d="M389.487 151.488C390.173 151.011 391.094 151.053 391.734 151.59C426.377 180.642 449.638 221.672 456.527 266.601C456.609 267.135 456.453 267.679 456.101 268.089C455.749 268.499 455.236 268.735 454.695 268.735H428.995C428.117 268.735 427.36 268.12 427.181 267.261C419.162 228.929 398.137 194.309 367.723 169.47C367.273 169.102 367.021 168.544 367.044 167.963C367.067 167.381 367.361 166.844 367.839 166.512L389.487 151.488ZM371.958 168.165C401.624 193.096 422.249 227.25 430.494 265.028H452.523C445.448 222.298 423.248 183.299 390.432 155.343L371.958 168.165Z" fill="#4D4D61"/>
<path d="M296.738 198.281C296.738 198.281 288.534 205.102 289.226 191.066C289.522 184.641 297.924 184.838 297.924 184.838L298.814 190.868L296.738 198.281Z" fill="#B0977A"/>
<path fill-rule="evenodd" clip-rule="evenodd" d="M294.302 187.291C292.53 187.916 291.176 189.003 291.077 191.151L291.076 191.157C290.909 194.557 291.307 196.376 291.763 197.281C291.975 197.703 292.175 197.878 292.297 197.956C292.416 198.032 292.561 198.079 292.769 198.084C293.256 198.097 293.908 197.873 294.568 197.507C294.78 197.389 294.969 197.271 295.125 197.166L296.922 190.748L296.341 186.807C295.725 186.894 295.008 187.042 294.302 187.291ZM297.924 184.838L297.967 182.986C298.87 183.007 299.626 183.675 299.757 184.568L300.647 190.598C300.685 190.855 300.668 191.117 300.598 191.368L298.522 198.781C298.421 199.144 298.212 199.466 297.923 199.707L296.738 198.282C297.923 199.707 297.922 199.707 297.921 199.708L297.919 199.709L297.916 199.713L297.905 199.721L297.876 199.745C297.853 199.763 297.821 199.788 297.782 199.819C297.705 199.879 297.597 199.96 297.463 200.056C297.197 200.246 296.819 200.498 296.365 200.749C295.509 201.223 294.153 201.827 292.675 201.79C291.901 201.771 291.074 201.574 290.3 201.079C289.527 200.585 288.911 199.861 288.452 198.948C287.564 197.185 287.196 194.594 287.374 190.977C287.573 186.703 290.568 184.677 293.069 183.795C294.319 183.354 295.532 183.156 296.416 183.064C296.863 183.018 297.237 182.998 297.505 182.99C297.639 182.986 297.747 182.985 297.826 182.984C297.865 182.984 297.897 182.985 297.92 182.985L297.95 182.985L297.96 182.985L297.964 182.985L297.966 182.986C297.967 182.986 297.967 182.986 297.924 184.838Z" fill="#4D4D61"/>
<path d="M320.955 183.06C317.002 188.596 310.873 192.154 304.053 192.846C298.913 193.34 299.011 181.479 291.005 195.515C287.842 197.195 284.086 193.834 282.405 191.857C281.911 191.264 281.911 190.375 282.504 189.881C283.987 188.596 286.754 185.531 288.039 180.194C288.929 175.054 290.609 171.297 294.662 173.472C298.221 175.35 320.362 172.681 320.955 183.06Z" fill="#EDD6BC"/>
<path fill-rule="evenodd" clip-rule="evenodd" d="M291.518 175.24C290.8 176.146 290.211 177.944 289.767 180.508C289.762 180.537 289.756 180.566 289.75 180.594C288.533 186.068 285.861 189.308 284.045 190.986C284.873 191.831 285.954 192.809 287.097 193.455C288.172 194.061 289.022 194.229 289.713 194.043C291.582 190.839 293.147 188.808 294.609 187.745C295.425 187.152 296.324 186.776 297.3 186.778C298.277 186.78 299.072 187.161 299.676 187.59C300.258 188.002 300.755 188.527 301.147 188.958C301.272 189.095 301.386 189.223 301.495 189.344C301.768 189.65 302.005 189.914 302.27 190.174C302.976 190.867 303.414 191.043 303.871 191C309.926 190.384 315.383 187.322 319.031 182.545C318.758 181.077 317.811 179.969 316.191 179.064C314.279 177.995 311.617 177.335 308.647 176.912C306.111 176.55 303.507 176.38 301.149 176.225C300.766 176.2 300.39 176.176 300.021 176.151C298.723 176.063 297.502 175.969 296.479 175.833C295.522 175.706 294.487 175.515 293.717 175.119L293.687 175.104C292.903 174.683 292.463 174.672 292.256 174.708C292.075 174.739 291.831 174.845 291.518 175.24ZM295.418 171.826C294.182 171.167 292.9 170.837 291.632 171.054C290.33 171.276 289.338 172.023 288.613 172.937C287.264 174.64 286.568 177.27 286.122 179.832C285.039 184.66 282.65 187.286 281.296 188.474C279.945 189.62 279.692 191.838 281.074 193.245C281.997 194.218 283.504 195.683 285.275 196.683C287.035 197.676 289.471 198.427 291.874 197.15C292.184 196.986 292.441 196.737 292.615 196.432C294.607 192.938 295.939 191.361 296.788 190.744C296.979 190.605 297.113 190.54 297.192 190.511C297.231 190.496 297.257 190.49 297.272 190.487C297.286 190.484 297.292 190.485 297.293 190.485C297.293 190.485 297.294 190.485 297.296 190.485C297.299 190.486 297.308 190.488 297.325 190.494C297.36 190.507 297.427 190.538 297.531 190.612C297.759 190.774 298.026 191.036 298.406 191.453C298.485 191.54 298.572 191.637 298.664 191.74C298.961 192.072 299.315 192.468 299.673 192.819C300.642 193.77 302.119 194.893 304.23 194.69L304.24 194.689C311.588 193.943 318.199 190.107 322.463 184.136C322.709 183.792 322.83 183.375 322.806 182.953C322.611 179.547 320.592 177.277 318 175.828C315.479 174.42 312.267 173.684 309.17 173.242C306.482 172.859 303.721 172.679 301.37 172.525C300.993 172.5 300.626 172.476 300.272 172.453C298.97 172.364 297.858 172.277 296.967 172.159C296.029 172.034 295.571 171.901 295.418 171.826Z" fill="#4D4D61"/>
<path d="M323.822 194.723C323.822 194.723 320.956 186.42 313.245 182.466C312.455 185.53 308.501 188.595 304.646 189.682L306.82 193.438C308.501 196.502 307.117 200.357 303.855 201.445C300.988 202.433 297.924 201.049 296.738 198.282L291.895 183.553C291.895 183.553 301.384 180.094 304.25 177.128C306.227 175.151 310.873 167.738 310.873 167.738C310.873 167.738 319.473 169.814 325.305 175.646C330.148 180.489 334.498 188.694 334.498 188.694L323.822 194.723Z" fill="#EDD6BC"/>
<path d="M302.471 201.049L297.628 186.321C297.628 186.321 307.117 182.862 309.984 179.896C311.961 177.919 316.606 170.506 316.606 170.506C316.606 170.506 317.891 170.802 319.868 171.593C315.223 168.825 310.774 167.738 310.774 167.738C310.774 167.738 306.129 175.151 304.152 177.128C301.186 179.995 291.796 183.553 291.796 183.553L296.639 198.282C297.628 200.753 300.198 202.137 302.768 201.642C302.669 201.445 302.57 201.247 302.471 201.049Z" fill="#F7E3CB"/>
<path d="M318.978 185.233C318.879 185.629 318.682 186.024 318.484 186.419C322.24 190.373 323.822 194.723 323.822 194.723L327.182 192.844C325.502 190.274 322.833 187.21 318.978 185.233Z" fill="#F7E3CB"/>
<path fill-rule="evenodd" clip-rule="evenodd" d="M311.308 165.936L310.873 167.737C311.308 165.936 311.307 165.936 311.308 165.936L311.313 165.937L311.321 165.939L311.346 165.945C311.368 165.951 311.397 165.958 311.434 165.968C311.508 165.987 311.614 166.015 311.748 166.052C312.015 166.126 312.397 166.236 312.87 166.387C313.815 166.688 315.132 167.151 316.639 167.804C319.631 169.101 323.471 171.191 326.615 174.335C329.18 176.9 331.564 180.297 333.28 182.989C334.145 184.347 334.856 185.55 335.351 186.415C335.598 186.847 335.792 187.196 335.925 187.439C335.992 187.56 336.043 187.655 336.079 187.72L336.119 187.795L336.13 187.816L336.134 187.824C336.134 187.824 336.135 187.825 334.497 188.693L336.134 187.824C336.605 188.711 336.283 189.813 335.409 190.307L324.733 196.336C324.254 196.607 323.68 196.651 323.165 196.456C322.652 196.261 322.251 195.849 322.071 195.331C322.071 195.331 322.071 195.331 322.071 195.331C322.071 195.33 322.071 195.33 322.07 195.329C322.07 195.329 322.07 195.328 322.07 195.327L322.068 195.322C322.065 195.313 322.059 195.296 322.05 195.272C322.032 195.224 322.002 195.146 321.961 195.043C321.879 194.837 321.751 194.529 321.572 194.142C321.213 193.368 320.656 192.287 319.873 191.091C318.569 189.096 316.678 186.838 314.09 185.11C313.364 186.292 312.359 187.356 311.269 188.249C310.108 189.199 308.763 190.029 307.354 190.66L308.424 192.509C308.431 192.521 308.438 192.534 308.445 192.546C310.638 196.546 308.883 201.715 304.45 203.199C300.658 204.502 296.598 202.659 295.034 199.011C295.013 198.962 294.994 198.911 294.977 198.86L290.134 184.132C289.821 183.181 290.319 182.154 291.259 181.812C291.259 181.812 291.259 181.812 291.259 181.812L291.264 181.81L291.282 181.803L291.356 181.776C291.423 181.751 291.523 181.714 291.651 181.665C291.908 181.568 292.281 181.425 292.738 181.243C293.654 180.88 294.902 180.366 296.233 179.764C297.569 179.159 298.965 178.476 300.188 177.775C301.442 177.056 302.388 176.388 302.918 175.84L302.94 175.817C303.773 174.983 305.324 172.806 306.763 170.659C307.459 169.622 308.095 168.644 308.557 167.925C308.788 167.565 308.975 167.271 309.104 167.068C309.168 166.966 309.218 166.887 309.252 166.833L309.302 166.754M294.206 184.649L298.471 197.618C299.298 199.457 301.335 200.352 303.251 199.692L303.269 199.686C305.347 198.993 306.356 196.469 305.204 194.346L303.042 190.61C302.755 190.115 302.713 189.515 302.928 188.984C303.143 188.454 303.592 188.053 304.142 187.898C305.813 187.426 307.539 186.512 308.92 185.381C310.333 184.224 311.193 183.002 311.451 182.002C311.591 181.457 311.972 181.006 312.486 180.775C312.999 180.544 313.59 180.559 314.091 180.816C318.327 182.989 321.189 186.329 322.976 189.062C323.722 190.203 324.291 191.254 324.703 192.096L331.979 187.987C331.518 187.189 330.895 186.144 330.154 184.981C328.484 182.361 326.272 179.234 323.994 176.956C321.306 174.267 317.93 172.403 315.164 171.205C313.792 170.61 312.595 170.189 311.745 169.919C311.727 169.913 311.71 169.908 311.692 169.902C311.687 169.911 311.681 169.92 311.675 169.929C311.204 170.661 310.555 171.66 309.842 172.723C308.469 174.771 306.715 177.279 305.572 178.427C304.669 179.357 303.358 180.23 302.032 180.991C300.669 181.772 299.156 182.51 297.761 183.141C296.411 183.752 295.149 184.273 294.206 184.649Z" fill="#4D4D61"/>
<path fill-rule="evenodd" clip-rule="evenodd" d="M300.577 193.751L299.704 194.625C300.577 193.751 300.577 193.751 300.577 193.751L300.579 193.753L300.582 193.755L300.588 193.762L300.607 193.782C300.623 193.798 300.643 193.819 300.669 193.846C300.719 193.9 300.788 193.975 300.87 194.07C301.031 194.256 301.247 194.523 301.466 194.843C301.869 195.435 302.422 196.412 302.422 197.491C302.422 198.361 301.891 198.997 301.479 199.373C301.039 199.776 300.496 200.1 300.022 200.345C299.535 200.595 299.058 200.792 298.707 200.926C298.53 200.993 298.382 201.046 298.276 201.082C298.223 201.1 298.181 201.114 298.15 201.124L298.114 201.136L298.103 201.139L298.099 201.141L298.098 201.141C298.098 201.141 298.097 201.141 297.727 199.962C296.713 200.669 296.713 200.669 296.713 200.669L296.711 200.667L296.709 200.663L296.702 200.652L296.678 200.617C296.658 200.588 296.63 200.547 296.596 200.495C296.529 200.391 296.436 200.245 296.33 200.066C296.119 199.713 295.846 199.216 295.613 198.665C295.386 198.128 295.164 197.464 295.118 196.794C295.072 196.121 295.198 195.255 295.9 194.606C296.038 194.479 296.203 194.385 296.383 194.331L299.349 193.441C299.784 193.311 300.256 193.43 300.577 193.751ZM297.727 199.962L296.713 200.669C297.021 201.111 297.583 201.303 298.098 201.141L297.727 199.962ZM298.25 198.446C298.455 198.359 298.674 198.259 298.891 198.147C299.281 197.946 299.604 197.739 299.812 197.549C299.883 197.484 299.924 197.437 299.946 197.408C299.917 197.106 299.732 196.687 299.424 196.235C299.378 196.167 299.331 196.102 299.285 196.04L297.58 196.552C297.58 196.574 297.581 196.598 297.583 196.625C297.602 196.901 297.708 197.275 297.889 197.702C298 197.965 298.127 198.219 298.25 198.446ZM297.601 196.39C297.601 196.39 297.6 196.394 297.595 196.401C297.598 196.393 297.6 196.39 297.601 196.39Z" fill="#4D4D61"/>
<path fill-rule="evenodd" clip-rule="evenodd" d="M283.585 190.148C283.764 190.259 283.96 190.374 284.163 190.483C284.551 190.691 284.909 190.845 285.19 190.916C285.289 190.941 285.354 190.95 285.392 190.953C285.605 190.8 285.848 190.451 286.055 189.943C286.086 189.868 286.114 189.794 286.139 189.723L284.78 188.59C284.762 188.602 284.742 188.616 284.721 188.633C284.499 188.802 284.245 189.097 283.987 189.48C283.838 189.703 283.702 189.933 283.585 190.148ZM284.932 188.514C284.932 188.515 284.928 188.516 284.921 188.516C284.928 188.514 284.932 188.514 284.932 188.514ZM287.545 189.286L288.759 189.517C288.843 189.076 288.681 188.624 288.336 188.337L285.964 186.36C285.816 186.237 285.643 186.15 285.456 186.106C284.533 185.889 283.748 186.265 283.219 186.671C282.689 187.076 282.258 187.622 281.935 188.103C281.604 188.597 281.339 189.094 281.158 189.461C281.067 189.647 280.996 189.803 280.946 189.915C280.922 189.972 280.902 190.017 280.889 190.049L280.872 190.088L280.867 190.1L280.866 190.104L280.865 190.106C280.865 190.106 280.865 190.107 282.01 190.571L280.865 190.106C280.655 190.623 280.818 191.218 281.263 191.555L282.01 190.571C281.263 191.555 281.263 191.555 281.263 191.555L281.265 191.557L281.268 191.559L281.277 191.566L281.306 191.588C281.332 191.606 281.367 191.633 281.412 191.665C281.501 191.729 281.628 191.819 281.783 191.924C282.09 192.131 282.52 192.406 282.995 192.661C283.46 192.91 284.022 193.169 284.584 193.312C285.088 193.439 285.893 193.55 286.605 193.11C287.555 192.547 288.075 191.535 288.343 190.877C288.491 190.516 288.592 190.185 288.657 189.944C288.69 189.823 288.715 189.722 288.731 189.649C288.739 189.612 288.746 189.582 288.75 189.56L288.756 189.533L288.758 189.523L288.758 189.52L288.759 189.518L288.759 189.517C288.759 189.517 288.759 189.517 287.545 189.286ZM283.154 191.036C283.154 191.037 283.154 191.037 283.154 191.036V191.036Z" fill="#4D4D61"/>
<path d="M336.178 186.518L361.384 234.854C365.041 241.872 371.071 247.309 378.485 250.274C395.387 256.996 414.564 248.693 421.285 231.79C428.007 214.887 419.704 195.711 402.801 188.989L392.125 184.739C387.578 182.959 385.404 177.721 387.183 173.272C388.962 168.824 394.102 166.65 398.649 168.429L409.325 172.679C435.321 182.959 447.974 212.416 437.694 238.314C427.414 264.31 397.957 276.963 372.06 266.683C360.791 262.235 351.499 253.833 345.865 243.058L321.055 195.513L336.178 186.518Z" fill="#E5E5E5"/>
<path d="M342.998 199.566L336.177 186.518L320.955 195.513L327.676 208.363L342.998 199.566Z" fill="#E5E5E5"/>
<path d="M320.955 195.513L345.765 243.059C346.655 244.739 347.643 246.42 348.731 248.001C348.138 244.541 351.696 251.955 351.696 251.955L326.391 192.153L320.955 195.513Z" fill="white"/>
<path fill-rule="evenodd" clip-rule="evenodd" d="M336.686 184.737C337.175 184.876 337.585 185.21 337.82 185.661L344.641 198.708C345.102 199.59 344.784 200.679 343.921 201.174L328.6 209.972C328.163 210.223 327.642 210.285 327.158 210.144C326.674 210.002 326.268 209.67 326.035 209.223L319.313 196.373C318.856 195.499 319.163 194.42 320.012 193.919L335.235 184.924C335.672 184.665 336.197 184.597 336.686 184.737ZM323.413 196.215L328.426 205.797L340.53 198.847L335.44 189.108L323.413 196.215Z" fill="#4D4D61"/>
<path d="M388.468 178.907C390.247 174.459 395.387 172.284 399.934 174.063L410.61 178.314C425.832 184.343 436.507 196.996 440.659 211.724C437.891 194.722 426.524 179.5 409.423 172.679L398.748 168.429C394.201 166.65 389.16 168.824 387.282 173.272C386.194 175.941 386.491 178.907 387.974 181.18C387.974 180.389 388.171 179.697 388.468 178.907Z" fill="white"/>
<path d="M337.463 188.989L358.122 236.139C363.361 245.629 369.786 253.042 377.101 255.909C394.004 262.63 415.651 254.327 422.373 237.424C425.239 230.11 425.338 222.4 423.163 215.48C423.855 220.818 423.262 226.452 421.088 231.79C414.366 248.693 395.19 256.996 378.287 250.274C370.972 247.309 364.844 241.872 361.187 234.854L336.178 186.518" fill="white"/>
<path fill-rule="evenodd" clip-rule="evenodd" d="M397.968 170.154C394.342 168.738 390.292 170.489 388.903 173.962C387.498 177.474 389.231 181.617 392.8 183.014L392.81 183.018L403.485 187.268C403.485 187.268 403.485 187.268 403.485 187.268C421.335 194.366 430.108 214.618 423.007 232.475C415.908 250.326 395.656 259.098 377.799 251.997L377.796 251.996C369.975 248.868 363.604 243.127 359.74 235.712C359.74 235.712 359.74 235.712 359.74 235.712L335.44 189.114L323.508 196.211L347.507 242.2C352.937 252.584 361.889 260.677 372.739 264.96L372.743 264.961C397.691 274.864 426.067 262.674 435.97 237.633L435.97 237.631C445.874 212.682 433.684 184.306 408.643 174.404L408.638 174.402L397.973 170.156C397.972 170.155 397.97 170.155 397.968 170.154ZM385.462 172.585C387.63 167.163 393.858 164.565 399.324 166.704L399.334 166.708L410.006 170.957C410.006 170.957 410.007 170.957 410.008 170.958C436.959 181.616 450.072 212.152 439.416 238.998C428.757 265.949 398.223 279.062 371.377 268.407C359.691 263.793 350.06 255.082 344.222 243.918L319.411 196.371C318.956 195.499 319.261 194.424 320.106 193.921L335.23 184.926C335.668 184.665 336.194 184.597 336.684 184.736C337.174 184.875 337.585 185.21 337.821 185.662L363.027 233.998C366.477 240.618 372.165 245.751 379.17 248.553C395.118 254.894 413.218 247.06 419.562 231.106C425.904 215.158 418.07 197.057 402.115 190.712L391.449 186.466C391.448 186.465 391.446 186.464 391.444 186.463C385.923 184.3 383.309 177.967 385.462 172.585Z" fill="#4D4D61"/>
<path d="M390.939 150.242L375.025 177.82L357.035 165.959L383.625 147.277L390.939 150.242Z" fill="#E5E5E5"/>
<path d="M377.595 151.527L357.035 165.959L365.14 171.297C365.239 171.198 365.338 171.198 365.437 171.099C374.432 166.156 379.572 157.755 377.595 151.527Z" fill="white"/>
<path fill-rule="evenodd" clip-rule="evenodd" d="M382.559 145.76C383.074 145.398 383.738 145.322 384.321 145.559L391.636 148.524C392.132 148.726 392.518 149.132 392.692 149.639C392.866 150.146 392.813 150.704 392.545 151.168L376.63 178.747C376.375 179.189 375.949 179.506 375.452 179.624C374.955 179.741 374.431 179.649 374.005 179.367L356.015 167.506C355.503 167.168 355.191 166.599 355.182 165.986C355.173 165.373 355.468 164.795 355.969 164.442L382.559 145.76ZM383.864 149.373L360.328 165.91L374.403 175.19L388.27 151.16L383.864 149.373Z" fill="#4D4D61"/>
<path d="M368.995 439.963C379.695 439.963 388.369 431.289 388.369 420.589C388.369 409.888 379.695 401.215 368.995 401.215C358.295 401.215 349.621 409.888 349.621 420.589C349.621 431.289 358.295 439.963 368.995 439.963Z" fill="#56566D"/>
<path opacity="0.44" d="M357.825 430.276C357.825 419.6 366.523 410.902 377.199 410.902C380.757 410.902 384.118 411.89 386.984 413.571C384.118 406.355 377.1 401.215 368.895 401.215C358.22 401.215 349.521 409.913 349.521 420.589C349.521 427.706 353.376 433.933 359.11 437.294C358.319 435.119 357.825 432.747 357.825 430.276Z" fill="#66667C"/>
<path fill-rule="evenodd" clip-rule="evenodd" d="M347.768 420.589C347.768 408.865 357.271 399.361 368.995 399.361C380.719 399.361 390.222 408.865 390.222 420.589C390.222 432.312 380.719 441.816 368.995 441.816C357.271 441.816 347.768 432.312 347.768 420.589ZM368.995 403.068C359.319 403.068 351.475 410.912 351.475 420.589C351.475 430.265 359.319 438.109 368.995 438.109C378.672 438.109 386.516 430.265 386.516 420.589C386.516 410.912 378.672 403.068 368.995 403.068Z" fill="#4D4D61"/>
<path fill-rule="evenodd" clip-rule="evenodd" d="M357.554 420.586C357.554 414.267 362.676 409.145 368.995 409.145C375.314 409.145 380.437 414.267 380.437 420.586C380.437 426.905 375.314 432.028 368.995 432.028C362.676 432.028 357.554 426.905 357.554 420.586ZM368.995 412.852C364.723 412.852 361.26 416.314 361.26 420.586C361.26 424.858 364.723 428.321 368.995 428.321C373.267 428.321 376.73 424.858 376.73 420.586C376.73 416.314 373.267 412.852 368.995 412.852Z" fill="#4D4D61"/>
<path d="M368.994 430.176C374.29 430.176 378.582 425.883 378.582 420.588C378.582 415.292 374.29 411 368.994 411C363.699 411 359.406 415.292 359.406 420.588C359.406 425.883 363.699 430.176 368.994 430.176Z" fill="#4D4D61"/>
<path d="M391.532 411C388.27 411 385.304 409.616 383.031 407.244C379.472 403.488 374.53 401.214 368.995 401.214C363.558 401.214 358.715 403.389 355.156 407.046C352.685 409.517 349.522 411 346.062 411H345.963C349.72 402.005 358.616 395.679 368.995 395.679C379.374 395.679 388.27 402.005 392.026 411H391.532Z" fill="#CA4361"/>
<path d="M362.965 396.37C355.255 398.248 349.028 403.784 345.963 411H346.062C349.423 411 352.586 409.715 354.86 407.342C356.837 405.267 360.889 403.586 364.151 402.598C367.018 401.708 367.215 397.556 364.349 396.568C364.052 396.37 363.459 396.271 362.965 396.37Z" fill="#D35375"/>
<path fill-rule="evenodd" clip-rule="evenodd" d="M349.242 408.635C350.926 408.082 352.485 407.093 353.837 405.744C357.734 401.744 363.048 399.36 368.995 399.36C375.054 399.36 380.476 401.854 384.373 405.965C385.654 407.301 387.166 408.251 388.816 408.748C384.783 402.029 377.415 397.532 368.995 397.532C360.621 397.532 353.289 401.979 349.242 408.635ZM344.253 410.285C348.288 400.623 357.844 393.825 368.995 393.825C380.146 393.825 389.702 400.623 393.736 410.285C393.975 410.857 393.912 411.511 393.569 412.027C393.225 412.543 392.646 412.853 392.026 412.853H391.532C387.717 412.853 384.282 411.227 381.693 408.526L381.686 408.518L381.686 408.518C378.466 405.119 374.005 403.067 368.995 403.067C364.073 403.067 359.704 405.029 356.485 408.338L356.467 408.356C353.696 411.127 350.078 412.853 346.062 412.853H345.963C345.344 412.853 344.765 412.543 344.421 412.027C344.077 411.511 344.014 410.857 344.253 410.285Z" fill="#4D4D61"/>
<path d="M472.884 439.963C483.584 439.963 492.257 431.289 492.257 420.589C492.257 409.888 483.584 401.215 472.884 401.215C462.183 401.215 453.51 409.888 453.51 420.589C453.51 431.289 462.183 439.963 472.884 439.963Z" fill="#56566D"/>
<path opacity="0.44" d="M462.405 430.276C462.405 419.6 471.104 410.902 481.779 410.902C485.338 410.902 488.698 411.89 491.565 413.571C488.698 406.355 481.68 401.215 473.476 401.215C462.801 401.215 454.102 409.913 454.102 420.589C454.102 427.706 457.957 433.933 463.69 437.294C462.899 435.119 462.405 432.747 462.405 430.276Z" fill="#66667C"/>
<path fill-rule="evenodd" clip-rule="evenodd" d="M451.655 420.589C451.655 408.865 461.159 399.361 472.882 399.361C484.606 399.361 494.11 408.865 494.11 420.589C494.11 432.312 484.606 441.816 472.882 441.816C461.159 441.816 451.655 432.312 451.655 420.589ZM472.882 403.068C463.206 403.068 455.362 410.912 455.362 420.589C455.362 430.265 463.206 438.109 472.882 438.109C482.559 438.109 490.403 430.265 490.403 420.589C490.403 410.912 482.559 403.068 472.882 403.068Z" fill="#4D4D61"/>
<path fill-rule="evenodd" clip-rule="evenodd" d="M108.163 260.852C108.163 259.828 108.993 258.998 110.016 258.998H123.459C124.483 258.998 125.313 259.828 125.313 260.852V445.399C125.313 446.422 124.483 447.252 123.459 447.252H110.016C108.993 447.252 108.163 446.422 108.163 445.399V260.852ZM111.87 262.705V443.545H121.606V262.705H111.87Z" fill="#4D4D61"/>
<path d="M123.46 260.852H110.016V445.399H123.46V260.852Z" fill="#4D4D61"/>
<path fill-rule="evenodd" clip-rule="evenodd" d="M461.441 420.586C461.441 414.267 466.564 409.145 472.883 409.145C479.202 409.145 484.324 414.267 484.324 420.586C484.324 426.905 479.202 432.028 472.883 432.028C466.564 432.028 461.441 426.905 461.441 420.586ZM472.883 412.852C468.611 412.852 465.148 416.314 465.148 420.586C465.148 424.858 468.611 428.321 472.883 428.321C477.155 428.321 480.618 424.858 480.618 420.586C480.618 416.314 477.155 412.852 472.883 412.852Z" fill="#4D4D61"/>
<path d="M495.42 411C492.158 411 489.193 409.616 486.92 407.244C483.361 403.488 478.419 401.214 472.883 401.214C467.447 401.214 462.603 403.389 459.045 407.046C456.574 409.517 453.411 411 449.951 411H449.852C453.608 402.005 462.504 395.679 472.883 395.679C483.262 395.679 492.158 402.005 495.915 411H495.42Z" fill="#CA4361"/>
<path d="M472.883 430.176C478.178 430.176 482.471 425.883 482.471 420.588C482.471 415.292 478.178 411 472.883 411C467.588 411 463.295 415.292 463.295 420.588C463.295 425.883 467.588 430.176 472.883 430.176Z" fill="#4D4D61"/>
<path fill-rule="evenodd" clip-rule="evenodd" d="M453.13 408.635C454.815 408.082 456.374 407.093 457.726 405.744C461.622 401.744 466.937 399.36 472.883 399.36C478.942 399.36 484.364 401.854 488.261 405.965C489.543 407.301 491.054 408.251 492.705 408.748C488.672 402.029 481.304 397.532 472.883 397.532C464.51 397.532 457.178 401.979 453.13 408.635ZM448.142 410.285C452.177 400.623 461.732 393.825 472.883 393.825C484.034 393.825 493.59 400.623 497.625 410.285C497.864 410.857 497.801 411.511 497.457 412.027C497.113 412.543 496.535 412.853 495.915 412.853H495.42C491.606 412.853 488.17 411.227 485.581 408.526L485.574 408.518L485.574 408.518C482.354 405.119 477.893 403.067 472.883 403.067C467.961 403.067 463.593 405.029 460.373 408.338L460.355 408.356C457.585 411.127 453.966 412.853 449.951 412.853H449.852C449.232 412.853 448.653 412.543 448.309 412.027C447.966 411.511 447.903 410.857 448.142 410.285Z" fill="#4D4D61"/>
<path d="M337.365 242.465H47.1501C44.7778 242.465 42.8997 240.587 42.8997 238.215V230.208C42.8997 227.836 44.7778 225.958 47.1501 225.958H337.365C339.737 225.958 341.615 227.836 341.615 230.208V238.215C341.615 240.587 339.737 242.465 337.365 242.465Z" fill="#B98C78"/>
<path d="M153.607 235.052C111.4 235.052 73.4428 237.919 47.4461 242.466H259.868C233.772 237.919 195.815 235.052 153.607 235.052Z" fill="#C9A08F"/>
<path fill-rule="evenodd" clip-rule="evenodd" d="M47.1499 227.813C45.8012 227.813 44.7529 228.861 44.7529 230.21V238.216C44.7529 239.565 45.8012 240.613 47.1499 240.613H337.364C338.713 240.613 339.761 239.565 339.761 238.216V230.21C339.761 228.861 338.713 227.813 337.364 227.813H47.1499ZM41.0461 230.21C41.0461 226.814 43.754 224.106 47.1499 224.106H337.364C340.76 224.106 343.468 226.814 343.468 230.21V238.216C343.468 241.612 340.76 244.32 337.364 244.32H47.1499C43.754 244.32 41.0461 241.612 41.0461 238.216V230.21Z" fill="#4D4D61"/>
<path fill-rule="evenodd" clip-rule="evenodd" d="M78.3853 244.319C73.577 244.319 69.6621 248.233 69.6621 253.042C69.6621 257.85 73.577 261.765 78.3853 261.765H306.029C310.838 261.765 314.753 257.85 314.753 253.042C314.753 248.233 310.838 244.319 306.029 244.319H78.3853ZM65.9554 253.042C65.9554 246.186 71.5298 240.612 78.3853 240.612H306.029C312.885 240.612 318.459 246.186 318.459 253.042C318.459 259.897 312.885 265.472 306.029 265.472H78.3853C71.5298 265.472 65.9554 259.897 65.9554 253.042Z" fill="#4D4D61"/>
<path d="M306.029 263.62H78.3852C72.5532 263.62 67.8086 258.875 67.8086 253.043C67.8086 247.211 72.5532 242.466 78.3852 242.466H306.029C311.861 242.466 316.606 247.211 316.606 253.043C316.606 258.875 311.861 263.62 306.029 263.62Z" fill="#4D4D61"/>
<path d="M162.603 258.677C130.082 258.677 102.207 260.753 89.9505 263.62H235.255C222.998 260.654 195.123 258.677 162.603 258.677Z" fill="#575770"/>
<path d="M166.655 209.847C170.204 209.847 173.08 206.969 173.08 203.422C173.08 199.873 170.204 196.997 166.655 196.997C163.107 196.997 160.23 199.873 160.23 203.422C160.23 206.969 163.107 209.847 166.655 209.847Z" fill="#83ABBA"/>
<path fill-rule="evenodd" clip-rule="evenodd" d="M158.377 203.422C158.377 198.85 162.084 195.144 166.656 195.144C171.228 195.144 174.934 198.85 174.934 203.422C174.934 207.993 171.228 211.701 166.656 211.701C162.083 211.701 158.377 207.993 158.377 203.422ZM166.656 198.851C164.131 198.851 162.084 200.897 162.084 203.422C162.084 205.947 164.131 207.994 166.656 207.994C169.181 207.994 171.227 205.947 171.227 203.422C171.227 200.897 169.181 198.851 166.656 198.851Z" fill="#4D4D61"/>
<path d="M164.778 200.852L165.272 200.753L141.054 66.2224L140.56 66.3212C135.914 67.2108 132.751 71.6589 133.641 76.3047L154.794 193.932C155.585 198.578 160.033 201.642 164.778 200.852Z" fill="#92B4C3"/>
<path d="M154.399 191.857C154.399 176.536 153.015 159.929 149.95 142.829C146.787 124.938 142.142 108.134 136.606 93.3066L154.399 191.857Z" fill="#ACD3E5"/>
<path fill-rule="evenodd" clip-rule="evenodd" d="M142.097 64.6902C142.508 64.9703 142.79 65.4041 142.878 65.894L167.096 200.425C167.275 201.418 166.625 202.372 165.635 202.57L165.141 202.669C165.13 202.671 165.12 202.673 165.109 202.675C165.1 202.677 165.091 202.678 165.082 202.68C159.379 203.63 153.942 199.945 152.968 194.252C152.968 194.249 152.967 194.246 152.967 194.243L131.82 76.6533C131.82 76.6497 131.819 76.6461 131.818 76.6425C130.735 70.9517 134.607 65.5784 140.203 64.5024L140.691 64.405C141.179 64.3073 141.686 64.4101 142.097 64.6902ZM139.587 68.5328C136.658 69.7279 134.859 72.8115 135.461 75.9562L135.465 75.9767L156.621 193.621C157.157 196.773 159.881 199.036 163.095 199.12L139.587 68.5328Z" fill="#4D4D61"/>
<path fill-rule="evenodd" clip-rule="evenodd" d="M266.121 261.643C266.121 260.619 266.95 259.789 267.974 259.789H281.417C282.441 259.789 283.271 260.619 283.271 261.643V446.19C283.271 447.213 282.441 448.043 281.417 448.043H267.974C266.95 448.043 266.121 447.213 266.121 446.19V261.643ZM269.827 263.496V444.336H279.564V263.496H269.827Z" fill="#4D4D61"/>
<path d="M281.417 261.643H267.974V446.19H281.417V261.643Z" fill="#4D4D61"/>
<path d="M179.11 219.04H302.668C308.698 219.04 313.64 214.098 313.64 208.068V203.422H168.138V208.068C168.138 214.098 173.08 219.04 179.11 219.04Z" fill="#92B4C3"/>
<path d="M302.668 215.579H179.11C173.08 215.579 168.138 210.637 168.138 204.607V208.067C168.138 214.097 173.08 219.039 179.11 219.039H302.668C308.698 219.039 313.64 214.097 313.64 208.067V204.607C313.64 210.637 308.698 215.579 302.668 215.579Z" fill="#83ABBA"/>
<path fill-rule="evenodd" clip-rule="evenodd" d="M166.285 203.421C166.285 202.398 167.115 201.568 168.139 201.568H313.641C314.665 201.568 315.495 202.398 315.495 203.421V208.067C315.495 215.12 309.722 220.892 302.669 220.892H179.111C172.057 220.892 166.285 215.12 166.285 208.067V203.421ZM169.992 205.275V208.067C169.992 213.073 174.105 217.186 179.111 217.186H302.669C307.675 217.186 311.788 213.073 311.788 208.067V205.275H169.992Z" fill="#4D4D61"/>
<path fill-rule="evenodd" clip-rule="evenodd" d="M184.569 218.959C184.569 217.936 185.399 217.106 186.422 217.106H295.351C296.375 217.106 297.205 217.936 297.205 218.959V225.879C297.205 226.902 296.375 227.732 295.351 227.732H186.422C185.399 227.732 184.569 226.902 184.569 225.879V218.959ZM188.276 220.813V224.025H293.498V220.813H188.276Z" fill="#4D4D61"/>
<path d="M186.422 225.878H295.351V218.959H186.422V225.878Z" fill="#4D4D61"/>
<path fill-rule="evenodd" clip-rule="evenodd" d="M239.85 207.831C239.85 207.149 240.403 206.596 241.085 206.596H250.871C251.554 206.596 252.107 207.149 252.107 207.831V211.093C252.107 211.776 251.554 212.329 250.871 212.329H241.085C240.403 212.329 239.85 211.776 239.85 211.093V207.831ZM242.321 209.067V209.858H249.636V209.067H242.321Z" fill="#4D4D61"/>
<path fill-rule="evenodd" clip-rule="evenodd" d="M225.904 207.831C225.904 207.149 226.457 206.596 227.139 206.596H236.925C237.607 206.596 238.161 207.149 238.161 207.831V211.093C238.161 211.776 237.607 212.329 236.925 212.329H227.139C226.457 212.329 225.904 211.776 225.904 211.093V207.831ZM228.375 209.067V209.858H235.689V209.067H228.375Z" fill="#4D4D61"/>
<path fill-rule="evenodd" clip-rule="evenodd" d="M177.874 209.451C177.874 207.786 179.224 206.436 180.889 206.436C182.554 206.436 183.904 207.786 183.904 209.451C183.904 211.117 182.554 212.466 180.889 212.466C179.225 212.466 177.874 211.117 177.874 209.451ZM180.889 208.907C180.589 208.907 180.345 209.151 180.345 209.451C180.345 209.752 180.588 209.995 180.889 209.995C181.19 209.995 181.433 209.752 181.433 209.451C181.433 209.151 181.189 208.907 180.889 208.907Z" fill="#4D4D61"/>
<path d="M529.325 152.714C530.808 141.346 522.702 130.968 511.236 129.881C500.264 128.794 490.577 136.898 489.095 147.87L475.553 248.595C474.959 253.142 478.123 257.295 482.67 257.888L494.63 259.468C499.177 260.061 503.328 256.898 503.922 252.351L505.898 237.525C509.556 210.342 516.277 183.456 527.744 158.547C528.436 156.767 529.029 154.789 529.325 152.714Z" fill="#CA4361"/>
<path d="M501.845 237.524L499.868 252.351C499.374 255.811 496.804 258.579 493.542 259.271L494.629 259.37C499.176 259.963 503.328 256.8 503.921 252.253L505.898 237.426C509.555 210.243 516.277 183.356 527.743 158.447C528.534 156.668 529.127 154.691 529.424 152.714C530.906 141.346 522.801 130.967 511.335 129.88C510.05 129.781 508.666 129.781 507.48 129.88C518.946 131.066 527.051 141.445 525.569 152.714C525.272 154.79 524.679 156.668 523.888 158.447" fill="#D35375"/>
<path d="M489.094 147.869L478.617 225.958C487.711 199.962 496.508 171.988 496.508 150.242C496.508 135.514 514.399 130.571 519.342 135.514C516.08 129.484 505.701 128.891 500.066 132.153C493.938 135.612 489.687 143.026 489.094 147.869Z" fill="#D35375"/>
<path fill-rule="evenodd" clip-rule="evenodd" d="M487.257 147.622C488.865 135.723 499.39 126.846 511.414 128.036C523.942 129.226 532.778 140.566 531.162 152.953L531.159 152.975C530.837 155.226 530.199 157.344 529.47 159.218C529.456 159.253 529.442 159.287 529.426 159.321C518.056 184.023 511.374 210.721 507.734 237.771L505.758 252.59L505.758 252.593C505.03 258.163 499.94 262.03 494.389 261.306L494.386 261.305L482.429 259.725L482.426 259.725C476.856 258.997 472.99 253.906 473.714 248.355L473.715 248.348L487.257 147.622ZM490.93 148.117C492.288 138.073 501.134 130.742 511.052 131.725L511.06 131.726C521.459 132.712 528.831 142.121 527.488 152.463C527.218 154.34 526.68 156.156 526.035 157.823C514.488 182.926 507.733 209.981 504.061 237.278L504.06 237.28L502.083 252.106L502.083 252.111C501.623 255.633 498.412 258.091 494.871 257.63L494.869 257.63L482.911 256.05L482.908 256.049C479.387 255.59 476.929 252.378 477.389 248.838L477.389 248.834L490.93 148.117Z" fill="#4D4D61"/>
<path d="M190.28 408.43L122.471 364.738C121.186 363.948 120.89 362.267 121.68 361.081L121.779 360.884C122.57 359.599 124.25 359.302 125.437 360.093L193.246 403.783C194.531 404.574 194.827 406.255 194.036 407.441L193.937 407.639C193.246 408.825 191.565 409.22 190.28 408.43Z" fill="#595D5C"/>
<path fill-rule="evenodd" clip-rule="evenodd" d="M123.388 361.81L123.336 361.913C123.302 361.981 123.264 362.046 123.222 362.109C122.985 362.465 123.096 362.947 123.442 363.16C123.453 363.167 123.464 363.173 123.475 363.18L191.263 406.859C191.474 406.983 191.714 407.014 191.929 406.966C192.13 406.922 192.254 406.824 192.317 406.734L192.378 406.612C192.413 406.544 192.451 406.477 192.494 406.413C192.732 406.057 192.621 405.575 192.274 405.361C192.263 405.355 192.252 405.348 192.242 405.341L124.433 361.651L124.408 361.635C124.069 361.409 123.615 361.499 123.388 361.81ZM126.451 358.541C124.434 357.208 121.565 357.696 120.201 359.913C120.173 359.958 120.147 360.005 120.123 360.052L120.068 360.161C118.815 362.165 119.313 364.957 121.481 366.305L189.276 409.988C189.287 409.995 189.298 410.001 189.309 410.008C191.398 411.294 194.275 410.739 195.538 408.573C195.558 408.538 195.577 408.503 195.595 408.468L195.649 408.359C196.901 406.355 196.403 403.564 194.235 402.216L126.451 358.541Z" fill="#4D4D61"/>
<path d="M197.496 386.189L197.199 385.992C193.838 386.585 189.489 385.596 185.535 383.026C182.57 381.148 180.296 378.578 179.011 376.107C177.825 373.833 176.244 371.758 174.168 370.374L147.973 352.68C144.909 350.604 140.856 350.209 137.001 351.494L128.501 354.459C125.634 355.448 124.744 359.501 127.018 360.983L192.652 403.29L198.484 394.196C200.263 391.329 199.868 387.771 197.496 386.189Z" fill="#9B8462"/>
<path opacity="0.74" d="M137.001 351.493L135.618 351.987C135.716 355.249 137.397 358.412 140.362 360.389L181.384 386.781C185.239 389.253 190.181 388.857 193.542 386.09C190.972 385.793 188.204 384.805 185.535 383.124C182.57 381.246 180.296 378.676 179.011 376.205C177.825 373.931 176.244 371.856 174.168 370.472L147.973 352.778C144.909 350.505 140.856 350.109 137.001 351.493Z" fill="#E1C885"/>
<path fill-rule="evenodd" clip-rule="evenodd" d="M149.012 351.145C149.012 351.145 149.013 351.145 149.013 351.146L175.196 368.831C175.198 368.833 175.199 368.834 175.201 368.835C177.618 370.447 179.381 372.807 180.655 375.249L180.656 375.252C181.784 377.422 183.828 379.751 186.527 381.46L186.546 381.472C190.202 383.849 194.081 384.66 196.877 384.166C197.347 384.083 197.831 384.185 198.228 384.449L198.524 384.647C198.524 384.647 198.524 384.647 198.524 384.647C201.985 386.955 202.186 391.746 200.059 395.173L200.044 395.196L194.213 404.29C193.947 404.704 193.527 404.996 193.046 405.101C192.565 405.205 192.062 405.114 191.648 404.847L126.006 362.536C124.033 361.249 123.613 358.962 124.024 357.13C124.438 355.284 125.762 353.445 127.893 352.708C127.894 352.708 127.896 352.708 127.897 352.707L136.391 349.744L136.416 349.736C140.731 348.297 145.4 348.698 149.012 351.145ZM137.6 353.248L129.105 356.211C128.372 356.464 127.819 357.145 127.64 357.942C127.459 358.751 127.728 359.231 128.028 359.429C128.029 359.429 128.03 359.43 128.031 359.431L192.095 400.725L196.916 393.207C198.24 391.065 197.821 388.908 196.725 387.93C192.959 388.346 188.5 387.161 184.535 384.586C181.307 382.54 178.807 379.731 177.367 376.962C176.27 374.859 174.872 373.07 173.14 371.916L173.131 371.909L146.934 354.214C144.421 352.512 140.99 352.122 137.6 353.248Z" fill="#4D4D61"/>
<path fill-rule="evenodd" clip-rule="evenodd" d="M174.156 369.605C174.921 369.115 175.927 369.25 176.534 369.925L179.203 372.89C179.651 373.388 179.796 374.088 179.582 374.722C179.368 375.356 178.83 375.826 178.172 375.951L167.793 377.928C166.921 378.094 166.053 377.618 165.725 376.793C165.396 375.968 165.699 375.026 166.446 374.547L174.156 369.605Z" fill="#4D4D61"/>
<path d="M195.915 348.529L187.71 356.635L207.776 381.841L217.661 373.636L195.915 348.529Z" fill="#92B4C3"/>
<path d="M195.321 349.122L187.71 356.634L198.583 370.275C200.363 367.705 201.45 364.641 201.45 361.379C201.45 356.436 199.078 351.988 195.321 349.122Z" fill="#9EC0CC"/>
<path fill-rule="evenodd" clip-rule="evenodd" d="M195.986 346.676C196.498 346.696 196.979 346.927 197.315 347.315L219.061 372.422C219.387 372.799 219.548 373.291 219.507 373.787C219.466 374.284 219.227 374.743 218.844 375.062L208.959 383.266C208.576 383.584 208.081 383.734 207.585 383.683C207.09 383.632 206.636 383.384 206.325 382.994L186.26 357.788C185.67 357.047 185.733 355.981 186.407 355.315L194.611 347.21C194.976 346.85 195.474 346.656 195.986 346.676ZM190.197 356.782L208.047 379.205L215.02 373.418L195.809 351.238L190.197 356.782Z" fill="#4D4D61"/>
<path d="M357.825 380.753L364.053 390.539L392.916 376.108L386.985 364.74L357.825 380.753Z" fill="#92B4C3"/>
<path d="M357.825 380.753L364.053 390.539L392.916 376.108L386.985 364.74L357.825 380.753Z" fill="#92B4C3"/>
<path d="M368.995 381.939C368.995 379.765 367.809 377.886 365.832 376.305L357.825 380.753L363.262 389.254C366.722 387.573 368.995 384.905 368.995 381.939Z" fill="#9EC0CC"/>
<path fill-rule="evenodd" clip-rule="evenodd" d="M387.522 362.966C387.999 363.111 388.398 363.441 388.628 363.883L394.559 375.25C394.789 375.691 394.832 376.206 394.679 376.678C394.526 377.151 394.189 377.543 393.745 377.765L364.882 392.197C364.032 392.622 362.999 392.335 362.489 391.534L356.262 381.748C355.987 381.316 355.903 380.789 356.03 380.293C356.157 379.797 356.484 379.375 356.933 379.129L386.093 363.116C386.53 362.876 387.045 362.822 387.522 362.966ZM360.45 381.426L364.719 388.134L390.401 375.293L386.218 367.276L360.45 381.426Z" fill="#4D4D61"/>
<path fill-rule="evenodd" clip-rule="evenodd" d="M275.654 142.359C275.923 141.922 276.458 141.395 277.265 141.395C278.073 141.395 278.608 141.922 278.877 142.359C279.158 142.817 279.292 143.37 279.292 143.916C279.292 144.461 279.158 145.015 278.877 145.472C278.608 145.909 278.073 146.436 277.265 146.436C276.458 146.436 275.923 145.909 275.654 145.472C275.373 145.015 275.239 144.461 275.239 143.916C275.239 143.37 275.373 142.817 275.654 142.359Z" fill="#4D4D61"/>
<path d="M195.914 214.294H190.972C189.687 214.294 188.6 213.207 188.6 211.922V208.957C188.6 207.672 189.687 206.584 190.972 206.584H195.914C197.199 206.584 198.287 207.672 198.287 208.957V211.922C198.287 213.207 197.199 214.294 195.914 214.294Z" fill="#4D4D61"/>
</svg>
